<svg id="visual" viewBox="0 0 900 600" width="900" height="600" xmlns="http://www.w3.org/2000/svg" xmlns:xlink="http://www.w3.org/1999/xlink" version="1.1"><path d="M0 235L18.8 232C37.7 229 75.3 223 112.8 223C150.3 223 187.7 229 225.2 231C262.7 233 300.3 231 337.8 235C375.3 239 412.7 249 450.2 252C487.7 255 525.3 251 562.8 247C600.3 243 637.7 239 675.2 240C712.7 241 750.3 247 787.8 245C825.3 243 862.7 233 881.3 228L900 223L900 0L881.3 0C862.7 0 825.3 0 787.8 0C750.3 0 712.7 0 675.2 0C637.7 0 600.3 0 562.8 0C525.3 0 487.7 0 450.2 0C412.7 0 375.3 0 337.8 0C300.3 0 262.7 0 225.2 0C187.7 0 150.3 0 112.8 0C75.3 0 37.7 0 18.8 0L0 0Z" fill="#bcf0c4"></path><path d="M0 451L18.8 451C37.7 451 75.3 451 112.8 453C150.3 455 187.7 459 225.2 458C262.7 457 300.3 451 337.8 452C375.3 453 412.7 461 450.2 463C487.7 465 525.3 461 562.8 457C600.3 453 637.7 449 675.2 450C712.7 451 750.3 457 787.8 461C825.3 465 862.7 467 881.3 468L900 469L900 221L881.3 226C862.7 231 825.3 241 787.8 243C750.3 245 712.7 239 675.2 238C637.7 237 600.3 241 562.8 245C525.3 249 487.7 253 450.2 250C412.7 247 375.3 237 337.8 233C300.3 229 262.7 231 225.2 229C187.7 227 150.3 221 112.8 221C75.3 221 37.7 227 18.8 230L0 233Z" fill="#9ee8a8"></path><path d="M0 601L18.8 601C37.7 601 75.3 601 112.8 601C150.3 601 187.7 601 225.2 601C262.7 601 300.3 601 337.8 601C375.3 601 412.7 601 450.2 601C487.7 601 525.3 601 562.8 601C600.3 601 637.7 601 675.2 601C712.7 601 750.3 601 787.8 601C825.3 601 862.7 601 881.3 601L900 601L900 467L881.3 466C862.7 465 825.3 463 787.8 459C750.3 455 712.7 449 675.2 448C637.7 447 600.3 451 562.8 455C525.3 459 487.7 463 450.2 461C412.7 459 375.3 451 337.8 450C300.3 449 262.7 455 225.2 456C187.7 457 150.3 453 112.8 451C75.3 449 37.7 449 18.8 449L0 449Z" fill="#79cf82"></path></svg>