<svg id="visual" viewBox="0 0 900 600" width="900" height="600" xmlns="http://www.w3.org/2000/svg" xmlns:xlink="http://www.w3.org/1999/xlink" version="1.1"><rect x="0" y="0" width="900" height="600" fill="#c9f9cd"></rect><defs><linearGradient id="grad1_0" x1="33.3%" y1="0%" x2="100%" y2="100%"><stop offset="20%" stop-color="#c9f9cd" stop-opacity="1"></stop><stop offset="80%" stop-color="#c9f9cd" stop-opacity="1"></stop></linearGradient></defs><defs><linearGradient id="grad2_0" x1="0%" y1="0%" x2="66.7%" y2="100%"><stop offset="20%" stop-color="#c9f9cd" stop-opacity="1"></stop><stop offset="80%" stop-color="#c9f9cd" stop-opacity="1"></stop></linearGradient></defs><g transform="translate(900, 0)"><path d="M0 270.4C-23.5 263.1 -47.1 255.9 -65 242.4C-82.9 229 -95.1 209.5 -117 202.6C-138.9 195.8 -170.3 201.6 -191.2 191.2C-212.1 180.8 -222.4 154.2 -224.3 129.5C-226.2 104.8 -219.7 81.8 -226 60.6C-232.3 39.3 -251.4 19.6 -270.4 0L0 0Z" fill="#f8f8f8"></path></g><g transform="translate(0, 600)"><path d="M0 -270.4C21.5 -260.6 42.9 -250.8 66 -246.3C89.1 -241.8 113.7 -242.7 135.2 -234.2C156.7 -225.7 175.2 -207.8 186.7 -186.7C198.2 -165.6 202.8 -141.2 207.8 -120C212.9 -98.8 218.4 -80.8 228.9 -61.3C239.4 -41.9 254.9 -20.9 270.4 0L0 0Z" fill="#f8f8f8"></path></g></svg>